<svg xmlns="http://www.w3.org/2000/svg" width="760" height="475" viewBox="0 0 760 475">
<defs><linearGradient id="field" x1="0" y1="0" x2="1" y2="1"><stop offset="0" stop-color="#9bbcd6"/><stop offset="1" stop-color="#86abc8"/></linearGradient><linearGradient id="g0" x1="0" y1="1" x2="1" y2="0"><stop offset="0" stop-color="#1c3a5e"/><stop offset=".55" stop-color="#1c3a5e" stop-opacity=".55"/><stop offset="1" stop-color="#8fb0cc" stop-opacity="0"/></linearGradient><linearGradient id="g1" x1="1" y1="0" x2="0" y2="1"><stop offset="0" stop-color="#1c3a5e"/><stop offset=".55" stop-color="#1c3a5e" stop-opacity=".55"/><stop offset="1" stop-color="#8fb0cc" stop-opacity="0"/></linearGradient><linearGradient id="g2" x1="0" y1="0" x2="1" y2="0"><stop offset="0" stop-color="#1c3a5e"/><stop offset=".5" stop-color="#1c3a5e" stop-opacity=".6"/><stop offset="1" stop-color="#8fb0cc" stop-opacity="0"/></linearGradient><linearGradient id="g3" x1="1" y1="0" x2="0" y2="0"><stop offset="0" stop-color="#1c3a5e"/><stop offset=".5" stop-color="#1c3a5e" stop-opacity=".6"/><stop offset="1" stop-color="#8fb0cc" stop-opacity="0"/></linearGradient><linearGradient id="gh" x1="0" y1="0" x2="1" y2="1"><stop offset="0" stop-color="#1c3a5e"/><stop offset="1" stop-color="#8fb0cc" stop-opacity=".05"/></linearGradient></defs>
<rect width="760" height="475" fill="url(#field)"/>
<polygon points="401.3,457.5 569.3,378.9 737.3,457.5 737.3,553.6 401.3,553.6" fill="url(#g0)"/><polygon points="200.5,-86.2 568.7,-86.2 568.7,19.1 384.6,105.3 200.5,19.1" fill="url(#g1)"/><polygon points="-206.1,-26.8 127.6,-26.8 284.6,100.8 127.6,228.4 -206.1,228.4" fill="url(#g2)"/><polygon points="936.1,21.0 651.0,21.0 516.9,130.0 651.0,239.0 936.1,239.0" fill="url(#g3)"/><polygon points="786.9,418.0 735.5,507.1 632.5,507.1 581.1,418.0 632.5,328.9 735.5,328.9" fill="url(#gh)" opacity=".9"/>
</svg>