<svg xmlns="http://www.w3.org/2000/svg" width="1500" height="1025" viewBox="0 0 1500 1025">
<defs><linearGradient id="field" x1="0" y1="0" x2="1" y2="1"><stop offset="0" stop-color="#9bbcd6"/><stop offset="1" stop-color="#86abc8"/></linearGradient><linearGradient id="g0" x1="1" y1="0" x2="0" y2="1"><stop offset="0" stop-color="#1c3a5e"/><stop offset=".55" stop-color="#1c3a5e" stop-opacity=".55"/><stop offset="1" stop-color="#8fb0cc" stop-opacity="0"/></linearGradient><linearGradient id="g1" x1="0" y1="1" x2="1" y2="0"><stop offset="0" stop-color="#1c3a5e"/><stop offset=".55" stop-color="#1c3a5e" stop-opacity=".55"/><stop offset="1" stop-color="#8fb0cc" stop-opacity="0"/></linearGradient><linearGradient id="g2" x1="1" y1="0" x2="0" y2="0"><stop offset="0" stop-color="#1c3a5e"/><stop offset=".5" stop-color="#1c3a5e" stop-opacity=".6"/><stop offset="1" stop-color="#8fb0cc" stop-opacity="0"/></linearGradient><linearGradient id="gh" x1="0" y1="0" x2="1" y2="1"><stop offset="0" stop-color="#1c3a5e"/><stop offset="1" stop-color="#8fb0cc" stop-opacity=".05"/></linearGradient></defs>
<rect width="1500" height="1025" fill="url(#field)"/>
<polygon points="-109.3,-155.5 555.1,-155.5 555.1,34.5 222.9,190.0 -109.3,34.5" fill="url(#g0)"/><polygon points="160.9,975.5 637.0,752.7 1113.0,975.5 1113.0,1247.8 160.9,1247.8" fill="url(#g1)"/><polygon points="1777.2,584.0 1328.4,584.0 1117.2,755.6 1328.4,927.2 1777.2,927.2" fill="url(#g2)"/><polygon points="331.7,190.1 180.0,277.7 28.3,190.1 28.3,14.9 180.0,-72.7 331.7,14.9" fill="url(#gh)" opacity=".9"/>
</svg>