<svg xmlns="http://www.w3.org/2000/svg" width="1400" height="1050" viewBox="0 0 1400 1050">
<defs><linearGradient id="field" x1="0" y1="0" x2="1" y2="1"><stop offset="0" stop-color="#9bbcd6"/><stop offset="1" stop-color="#86abc8"/></linearGradient><linearGradient id="g0" x1="1" y1="0" x2="0" y2="1"><stop offset="0" stop-color="#1c3a5e"/><stop offset=".55" stop-color="#1c3a5e" stop-opacity=".55"/><stop offset="1" stop-color="#8fb0cc" stop-opacity="0"/></linearGradient><linearGradient id="g1" x1="0" y1="0" x2="1" y2="0"><stop offset="0" stop-color="#1c3a5e"/><stop offset=".5" stop-color="#1c3a5e" stop-opacity=".6"/><stop offset="1" stop-color="#8fb0cc" stop-opacity="0"/></linearGradient><linearGradient id="g2" x1="1" y1="0" x2="0" y2="0"><stop offset="0" stop-color="#1c3a5e"/><stop offset=".5" stop-color="#1c3a5e" stop-opacity=".6"/><stop offset="1" stop-color="#8fb0cc" stop-opacity="0"/></linearGradient><linearGradient id="gh" x1="0" y1="0" x2="1" y2="1"><stop offset="0" stop-color="#1c3a5e"/><stop offset="1" stop-color="#8fb0cc" stop-opacity=".05"/></linearGradient></defs>
<rect width="1400" height="1050" fill="url(#field)"/>
<polygon points="538.2,-194.6 1369.7,-194.6 1369.7,43.2 954.0,237.8 538.2,43.2" fill="url(#g0)"/><polygon points="-329.1,57.1 203.7,57.1 454.5,260.8 203.7,464.6 -329.1,464.6" fill="url(#g1)"/><polygon points="1819.2,419.2 1140.5,419.2 821.1,678.7 1140.5,938.2 1819.2,938.2" fill="url(#g2)"/><polygon points="401.6,105.0 284.8,307.3 51.2,307.3 -65.6,105.0 51.2,-97.3 284.8,-97.3" fill="url(#gh)" opacity=".9"/>
</svg>